#define arelle_width 16
#define arelle_height 16
static char arelle_bits[] = {
  0x00, 0x00, 0x02, 0x00, 0x18, 0x02, 0xC0, 0x18, 0x00, 0x01, 0x80, 0x2C, 
  0x00, 0x22, 0x00, 0x08, 0x00, 0x88, 0x00, 0x20, 0x00, 0x40, 0x00, 0x14, 
  0xB6, 0xD5, 0x94, 0x54, 0x4A, 0x2A, 0xCB, 0x6A, };
